<?xml version="1.0" encoding="UTF-8"?>
<svg width="736px" height="300px" viewBox="0 0 736 300" version="1.1" xmlns="http://www.w3.org/2000/svg" xmlns:xlink="http://www.w3.org/1999/xlink">
    <!-- Generator: Sketch 58 (84663) - https://sketch.com -->
    <title>etsy</title>
    <desc>Created with Sketch.</desc>
    <g id="Page-1" stroke="none" stroke-width="1" fill="none" fill-rule="evenodd">
        <g id="etsy" fill="#000000" fill-rule="nonzero">
            <path d="M382.468492,145.896586 L382.468492,92.7590599 C382.468492,90.790094 382.664716,89.6091821 386.008701,89.6091821 L431.029274,89.6091821 C438.894588,89.6091821 443.219693,96.3017955 446.366286,108.89663 L448.921871,118.93555 L456.588625,118.93555 C457.963361,90.3995746 459.141874,78 459.141874,78 C459.141874,78 439.875708,80.1642256 428.472521,80.1642256 L370.871417,80.1642256 L340,79.1797426 L340,87.4461257 L350.422067,89.4139224 C357.696373,90.7924324 359.46239,92.3650329 360.056902,99.0588155 C360.056902,99.0588155 360.64791,118.739121 360.64791,151.214197 C360.64791,183.684597 360.056902,203.170812 360.056902,203.170812 C360.056902,209.074202 357.696373,211.238428 350.422067,212.620445 L340,214.589411 L340,222.851117 L370.871417,221.868973 L422.381399,221.868973 C433.980811,221.868973 460.914898,222.851117 460.914898,222.851117 C461.502402,215.764477 465.437395,183.684597 466.027236,180.146538 L458.75293,180.146538 L451.085007,197.662618 C444.989214,211.436026 436.143947,212.421678 426.31172,212.421678 L397.015936,212.421678 C387.184877,212.421678 382.466156,208.484915 382.466156,200.023272 L382.466156,155.149791 C382.466156,155.149791 403.895458,155.149791 411.36482,155.741416 C416.870774,156.136612 420.211255,157.710382 421.983111,165.38514 L424.34364,175.619319 L432.792954,175.619319 L432.20545,149.834518 L433.383962,123.857965 L424.932312,123.857965 L422.181671,135.271887 C420.409815,142.750216 419.23247,144.131065 411.56338,144.915611 C402.914338,145.902432 382.464988,145.704834 382.464988,145.704834 L382.464988,145.900094 L382.468492,145.900094 L382.468492,145.896586 Z M499.053613,98.2707614 C496.300636,110.472738 493.547659,119.918864 483.913993,126.21745 C478.016759,130.151874 472.117189,131.528046 469.761333,131.725644 L469.761333,139.203973 L487.257978,139.203973 L487.257978,199.623399 C487.257978,216.551362 498.466109,224.818914 513.406001,224.818914 C525.00658,224.818914 536.997272,219.898838 541.127321,209.662319 L536.997272,204.348216 C535.030359,207.695692 528.743013,212.614599 520.877699,212.614599 C512.228657,212.614599 507.509935,206.708871 507.509935,191.754551 L507.509935,138.420596 L536.609496,140.58716 L538.180456,127.200764 L507.511103,128.382845 L507.511103,98.4660211 L499.053613,98.2707614 L499.053613,98.2707614 Z M561.181887,191.205018 L553.711356,191.401447 C554.103805,195.729898 554.302365,201.242769 554.302365,206.359274 C554.302365,211.673377 554.106141,216.593454 553.711356,218.954108 C553.711356,218.954108 568.653585,224.459964 583.792037,224.459964 C604.239051,224.459964 620.558351,214.619811 620.558351,195.332363 C620.558351,162.272677 571.014113,167.193923 571.014113,144.950688 C571.014113,135.70216 579.270708,132.158255 588.314534,132.158255 C595.392616,132.158255 601.28985,134.716508 602.46953,138.45918 L607.385644,153.219409 L614.661118,152.826551 C615.252126,144.953026 615.643406,135.899758 616.824254,128.619027 C610.531069,125.863176 597.357193,124.285899 589.106438,124.285899 C569.834433,124.285899 554.305869,132.74988 554.305869,151.64447 C554.305869,184.510066 602.66809,177.818622 602.66809,202.029653 C602.66809,210.685387 597.357193,216.787544 585.367669,216.787544 C574.360434,216.787544 568.853313,211.081752 566.694848,205.371283 L561.181887,191.205018 L561.181887,191.205018 Z M679.679024,213.941663 C668.296861,245.768992 654.363785,254.014329 641.805445,254.014329 C636.503892,254.014329 633.955315,251.654844 633.166915,247.928541 L630.223554,232.60124 L621.979808,232.994098 C620.410015,242.032166 618.840223,252.054717 616.684094,260.303562 C621.590864,264.031034 629.82877,266 636.307668,266 C649.8518,266 670.455325,264.228632 689.291667,219.440504 L720.88958,144.791674 C723.442828,138.700039 724.420445,138.110752 731.878127,135.16198 L736,133.594057 L736,126.717876 L717.355211,127.700021 L697.339189,126.717876 L697.339189,133.594057 L702.438679,135.16198 C707.539336,136.736919 709.898697,138.700039 709.898697,142.236929 C709.898697,144.00362 709.307688,145.772649 708.324232,148.520315 C705.380871,155.99046 687.129698,200.385731 682.228769,209.817826 L687.12853,208.046458 C678.492336,186.634538 665.349996,150.877462 663.385419,144.792843 C662.992971,143.6131 662.796747,142.630956 662.796747,141.644134 C662.796747,138.502441 664.955212,135.947696 669.665757,134.966721 L676.142319,133.595226 L676.142319,126.717876 L649.253783,127.70119 L627.864193,126.717876 L627.864193,133.595226 L631.397394,134.77263 C636.302996,136.344062 637.481508,137.720233 640.424869,144.595245 C656.707962,181.922583 664.36654,202.35002 674.762911,229.070197 L679.679024,213.941663 L679.679024,213.941663 Z" id="Shape"></path>
            <path d="M300,0 L300,300 L0,300 L0,0 L300,0 Z M118.653,142.874 L118.653601,62.4258139 C118.653601,59.4340472 118.952331,57.6396979 124.043179,57.6396979 L192.582042,57.6396979 C204.556117,57.6396979 211.140613,67.808862 215.930954,86.9462197 L219.82155,102.199966 L231.493339,102.199966 C233.586224,58.8406683 235.380379,40 235.380379,40 C235.380379,40 206.049764,43.2884561 188.689668,43.2884561 L100.998331,43.2884561 L54,41.7925728 L54,54.3530183 L69.8664489,57.3430084 C80.9407786,59.4376004 83.6293442,61.8271052 84.5344235,71.9980459 C84.5344235,71.9980459 85.4341683,101.9015 85.4341683,151.246107 C85.4341683,200.583609 84.5344235,230.19215 84.5344235,230.19215 C84.5344235,239.16212 80.9407786,242.450576 69.8664489,244.550498 L54,247.542264 L54,260.095604 L100.998331,258.603273 L179.416606,258.603273 C197.075432,258.603273 238.079613,260.095604 238.079613,260.095604 C238.974024,249.327731 244.964617,200.583609 245.862584,195.207667 L234.788254,195.207667 L223.114687,221.822665 C213.927315,242.541537 200.637469,244.216582 185.848688,244.248011 L140.800482,244.248479 C125.833778,244.248479 118.650045,238.266722 118.650045,225.409587 L118.650045,157.226088 L119.574881,157.226986 C124.96227,157.235077 152.410925,157.315983 162.645078,158.125039 C171.027285,158.725524 176.1128,161.116805 178.810256,172.7783 L182.403901,188.328735 L195.267051,188.328735 L194.372641,149.149739 L196.166796,109.679383 L183.300089,109.679383 L179.112542,127.022391 C176.415086,138.385419 174.622708,140.483564 162.947363,141.675652 C149.911821,143.160094 119.269108,142.880671 118.657557,142.874934 L118.653,142.874 Z M118.653,142.874 L118.653601,143.171535 L118.648267,143.171535 L118.648267,142.874846 L118.648267,142.874846 L118.653,142.874 Z" id="Combined-Shape"></path>
        </g>
    </g>
</svg>