<?xml version="1.0" encoding="UTF-8"?>
<svg width="300px" height="300px" viewBox="0 0 300 300" version="1.1" xmlns="http://www.w3.org/2000/svg" xmlns:xlink="http://www.w3.org/1999/xlink">
    <!-- Generator: Sketch 58 (84663) - https://sketch.com -->
    <title>Combined Shape</title>
    <desc>Created with Sketch.</desc>
    <g id="Page-1" stroke="none" stroke-width="1" fill="none" fill-rule="evenodd">
        <g id="etsy" fill="#1E3232" fill-rule="nonzero">
            <path d="M300,0 L300,300 L0,300 L0,0 L300,0 Z M118.653,142.874 L118.653601,62.4258139 C118.653601,59.4340472 118.952331,57.6396979 124.043179,57.6396979 L192.582042,57.6396979 C204.556117,57.6396979 211.140613,67.808862 215.930954,86.9462197 L219.82155,102.199966 L231.493339,102.199966 C233.586224,58.8406683 235.380379,40 235.380379,40 C235.380379,40 206.049764,43.2884561 188.689668,43.2884561 L100.998331,43.2884561 L54,41.7925728 L54,54.3530183 L69.8664489,57.3430084 C80.9407786,59.4376004 83.6293442,61.8271052 84.5344235,71.9980459 C84.5344235,71.9980459 85.4341683,101.9015 85.4341683,151.246107 C85.4341683,200.583609 84.5344235,230.19215 84.5344235,230.19215 C84.5344235,239.16212 80.9407786,242.450576 69.8664489,244.550498 L54,247.542264 L54,260.095604 L100.998331,258.603273 L179.416606,258.603273 C197.075432,258.603273 238.079613,260.095604 238.079613,260.095604 C238.974024,249.327731 244.964617,200.583609 245.862584,195.207667 L234.788254,195.207667 L223.114687,221.822665 C213.927315,242.541537 200.637469,244.216582 185.848688,244.248011 L140.800482,244.248479 C125.833778,244.248479 118.650045,238.266722 118.650045,225.409587 L118.650045,157.226088 L119.574881,157.226986 C124.96227,157.235077 152.410925,157.315983 162.645078,158.125039 C171.027285,158.725524 176.1128,161.116805 178.810256,172.7783 L182.403901,188.328735 L195.267051,188.328735 L194.372641,149.149739 L196.166796,109.679383 L183.300089,109.679383 L179.112542,127.022391 C176.415086,138.385419 174.622708,140.483564 162.947363,141.675652 C149.911821,143.160094 119.269108,142.880671 118.657557,142.874934 L118.653,142.874 Z M118.653,142.874 L118.653601,143.171535 L118.648267,143.171535 L118.648267,142.874846 L118.648267,142.874846 L118.653,142.874 Z" id="Combined-Shape"></path>
        </g>
    </g>
</svg>