<?xml version="1.0" encoding="UTF-8"?>
<svg width="300px" height="300px" viewBox="0 0 300 300" version="1.1" xmlns="http://www.w3.org/2000/svg" xmlns:xlink="http://www.w3.org/1999/xlink">
    <!-- Generator: Sketch 58 (84663) - https://sketch.com -->
    <title>Combined Shape</title>
    <desc>Created with Sketch.</desc>
    <defs>
        <path d="M283.443467,0 C292.587218,0 300,7.41156065 300,16.5575685 L300,16.5575685 L300,283.441267 C300,292.586111 292.586054,300 283.443467,300 L283.443467,300 L204.877462,300 L204.877462,184.971261 L244.615212,184.971261 L250.565376,140.14252 L204.877462,140.14252 L204.877462,111.522201 C204.877462,98.5432463 208.586825,89.6985167 227.742178,89.6985167 L252.173913,89.6881437 L252.173913,49.5929583 C247.948537,49.0466458 233.445605,47.826087 216.572571,47.826087 C181.347267,47.826087 157.231071,68.7173521 157.231071,107.082548 L157.231071,140.14252 L117.391304,140.14252 L117.391304,184.971261 L157.231071,184.971261 L157.231071,300 L16.557697,300 C7.4104541,300 0,292.584947 0,283.441267 L0,283.441267 L0,16.5575685 C0,7.41156065 7.41161817,0 16.557697,0 L16.557697,0 Z" id="path-1"></path>
    </defs>
    <g id="Page-1" stroke="none" stroke-width="1" fill="none" fill-rule="evenodd">
        <mask id="mask-2" fill="white">
            <use xlink:href="#path-1"></use>
        </mask>
        <use id="Combined-Shape" fill="#1E3232" fill-rule="nonzero" xlink:href="#path-1"></use>
    </g>
</svg>