<?xml version="1.0" encoding="UTF-8"?>
<svg width="1296px" height="300px" viewBox="0 0 1296 300" version="1.1" xmlns="http://www.w3.org/2000/svg" xmlns:xlink="http://www.w3.org/1999/xlink">
    <!-- Generator: Sketch 58 (84663) - https://sketch.com -->
    <title>Combined Shape</title>
    <desc>Created with Sketch.</desc>
    <g id="Page-1" stroke="none" stroke-width="1" fill="none" fill-rule="evenodd">
        <path d="M16.557697,0 L283.443467,0 C292.480895,0 299.827376,7.24020088 299.997002,16.2392342 L300,16.5575685 L300,283.441267 C300,292.479776 292.757469,299.82735 283.761684,299.997002 L283.443467,300 L204.877462,300 L204.877462,184.971261 L244.615212,184.971261 L250.565376,140.14252 L204.877462,140.14252 L204.877462,111.522201 C204.877462,98.5432463 208.586825,89.6985167 227.742178,89.6985167 L252.173913,89.6881437 L252.173913,49.5929583 C247.948537,49.0466458 233.445605,47.826087 216.572571,47.826087 C181.347267,47.826087 157.231071,68.7173521 157.231071,107.082548 L157.231071,140.14252 L117.391304,140.14252 L117.391304,184.971261 L157.231071,184.971261 L157.231071,300 L16.557697,300 C7.51681739,300 0.17257097,292.756388 0.00299694287,283.759523 L0,283.441267 L0,16.5575685 C0,7.51790958 7.24025707,0.172596387 16.2393602,0.00299738629 L16.557697,0 L283.443467,0 Z M736.694973,119.901174 C758.772281,123.582792 772.423802,137.676147 775.667511,159.947985 C776.784209,167.642615 776.741109,175.500707 776.878247,183.334218 L776.903002,184.639544 L776.972853,192.336684 C776.969735,192.438899 776.971071,193.065467 776.97209,193.415162 L776.972853,193.650618 C776.791602,193.692487 772.621945,193.746483 772.334598,193.750158 L772.319025,193.750356 C771.830067,193.750356 771.328013,193.746019 770.834689,193.746019 L739.64891,193.749814 L708.466404,193.750356 L702.406823,193.750356 C702.018276,207.089175 710.134099,212.730853 720.738366,214.474093 C727.269443,215.029154 733.739399,215.003136 740.14387,214.361346 C747.775101,213.385652 755.000322,211.642412 760.055794,210.22874 C760.322102,210.150685 760.584043,210.068293 760.85035,209.981565 C762.282298,209.504559 763.722976,209.062244 765.181117,208.684976 C765.207312,208.68064 765.242237,208.68064 765.268431,208.676303 C766.427137,208.308983 767.11018,208.068425 767.186528,208.041395 L767.193702,208.03885 L767.381427,208.671967 C769.132069,215.128892 770.991854,221.572807 772.53731,228.086106 L772.561321,228.085022 L772.585332,228.077433 L773.9256,232.960238 C740.532417,249.625089 702.651302,239.785759 694.910929,237.487458 C694.915294,237.483121 694.910929,237.483121 694.91966,237.474448 L694.808335,237.459813 L694.69701,237.44843 C677.731928,231.334082 667.930948,218.598025 665.228584,198.602806 C663.43865,185.311688 663.72242,171.266034 665.935827,158.031289 C669.58118,136.214775 687.367012,121.718133 710.797684,119.497887 C719.358807,118.686977 728.269186,118.500511 736.694973,119.901174 Z M647.783896,121.337739 L648.638952,121.575031 L648.666809,121.583458 C648.799255,121.622528 649.394217,121.795646 650.249893,122.065046 C651.341316,122.403287 652.432739,122.754537 653.519797,123.149151 C656.110108,124.090772 657.813421,124.776733 658.85224,125.574135 L659.003107,125.694627 C659.741306,126.155864 660.309928,126.631437 660.594174,127.09528 L660.670801,127.234055 L659.671058,131.045766 C659.461504,131.813312 659.199563,132.671922 658.885233,133.664962 C656.890111,140.00914 654.746556,146.309954 652.651024,152.68015 C646.622002,151.201432 641.243469,149.553594 635.733965,148.629937 C631.686968,147.949119 627.434783,147.753981 623.348495,148.139922 C611.251161,149.276063 603.646124,155.906445 601.91731,168.286915 C600.996149,174.847914 600.799692,181.708126 601.441449,188.355853 C608.236208,227.830989 651.07134,208.255361 652.773488,207.460618 L652.825652,207.436088 L654.537003,213.771593 C656.147459,218.836528 657.806206,224.059073 659.310879,229.356997 L659.867514,231.347091 L659.863148,231.338418 L660.871623,234.733833 L658.736799,235.479697 C653.126884,237.478785 645.312295,240.284447 639.86391,241.130048 C626.906534,243.137809 613.883673,242.951343 601.175142,239.252379 C581.699787,233.580346 569.720327,220.896326 565.359,201.265366 C562.447083,188.156378 562.329209,174.92597 564.865676,161.856009 C569.698498,137.017012 587.121977,121.969645 612.79225,119.27673 C624.675453,118.032919 636.37582,118.246102 647.783896,121.337739 Z M827.916121,57.2486212 L827.916121,134.137631 C838.411246,121.60105 850.827276,117.281978 865.177307,118.804061 C887.184764,121.132717 901.390728,132.836706 906.865306,154.037449 C911.802905,173.12202 911.973167,192.471113 905.415896,211.3432 C895.200176,240.761453 866.002423,247.188023 843.85963,239.304416 C838.235371,237.305638 833.39864,233.165759 828.464773,229.614294 L827.916121,229.222247 L827.916121,239.785759 L789.912766,239.785759 L789.912766,61.8192048 L827.916121,57.2486212 Z M999.858925,121.002624 C1020.77496,126.561911 1033.50532,139.974448 1038.13732,160.823941 C1041.09726,174.106387 1041.09726,187.445205 1038.03691,200.718978 C1032.45755,224.920521 1013.34455,240.696406 988.154503,241.997331 C987.896927,242.014677 987.634986,242.014677 987.37741,242.019014 C987.351216,242.02335 987.333753,242.032023 987.298828,242.032023 C982.225893,242.626112 976.148849,242.266189 971.372781,241.763165 C970.066347,241.660717 968.816736,241.525069 967.73216,241.347504 L967.277761,241.268813 L967.251567,241.268813 C966.941603,241.238458 966.618542,241.21244 966.304212,241.186421 C965.361222,241.04332 964.422598,240.869863 963.483974,240.683397 L963.373819,240.661819 C963.344691,240.656199 963.323806,240.652244 963.313118,240.650232 L963.304981,240.648706 C962.964457,240.57065 962.60647,240.50994 962.265946,240.427548 C937.870456,234.842243 922.153962,216.859122 920.748209,191.612502 C920.132646,180.576321 920.59541,169.132516 922.922324,158.369529 C927.18324,138.643168 940.406923,126.241016 960.139854,121.024306 C973.315514,117.537827 986.652705,117.494463 999.858925,121.002624 Z M1129.47634,120.985278 C1150.39237,126.540229 1163.114,139.952766 1167.76346,160.802259 C1170.71467,174.084705 1170.71467,187.42786 1167.65432,200.701632 C1162.07497,224.894503 1142.9576,240.674724 1117.76319,241.979986 C1117.51434,241.992995 1117.26113,241.992995 1116.99482,241.997331 C1116.9599,242.006004 1116.94244,242.006004 1116.91624,242.014677 C1111.85204,242.608766 1105.76626,242.248844 1100.98146,241.745819 C1099.49713,241.628736 1098.08701,241.463952 1096.89518,241.247131 C1096.88644,241.247131 1096.87771,241.247131 1096.86898,241.238458 C1096.55465,241.221113 1096.23596,241.190758 1095.92163,241.160403 C1094.97864,241.021638 1094.03128,240.848181 1093.09266,240.661715 C1093.00534,240.644369 1092.94876,240.632574 1092.92962,240.62855 L1092.9224,240.627024 C1092.58187,240.548968 1092.22388,240.488258 1091.87463,240.405866 C1067.48787,234.824898 1051.76265,216.83744 1050.36562,191.59082 C1049.75006,180.550302 1050.21282,169.110834 1052.53974,158.343511 C1056.80065,138.621486 1070.02434,126.22367 1089.74854,121.002624 C1102.9242,117.516145 1116.27012,117.472781 1129.47634,120.985278 Z M495.24161,120.417208 C501.947314,122.381605 505.177927,124.532468 513.73905,133.179283 L513.795706,133.23524 C513.906391,133.344916 514.171271,133.609032 514.519366,133.967157 L514.638382,134.089931 L514.808644,134.263387 C515.112497,134.582548 515.455466,134.948888 515.808493,135.333546 L516.074695,135.625022 L516.079061,135.625022 L516.079061,120.512609 L551.545948,120.512609 L551.545948,239.902842 L516.079061,239.902842 L516.079061,224.621308 C515.432939,225.870197 514.90469,226.511986 514.90469,226.511986 C509.041565,233.836195 502.720042,239.096268 494.215672,240.856854 C466.49789,246.589597 440.491459,234.959327 434.305272,200.228963 C431.441378,184.192893 431.511229,167.892301 436.396439,152.055706 C444.346365,126.28438 469.453464,112.871842 495.24161,120.417208 Z M1219.80252,57.3570317 L1219.80252,176.127157 L1254.81538,121.757161 L1295.11072,121.757161 L1257.12919,180.77146 L1295.11072,239.980898 L1254.81538,239.980898 L1219.80252,185.437444 L1219.80252,239.902842 L1181.77734,239.902842 L1181.77734,61.9319516 L1219.80252,57.3570317 Z M432.3217,59.6143255 L432.366905,59.6249778 L432.388733,59.6249778 L432.388733,59.6293142 L432.393099,59.6293142 L432.393099,87.4517657 L432.40183,87.5818582 L432.393099,88.7396816 C432.393099,88.7396816 404.786182,85.5860908 402.310887,101.957987 L402.243625,102.460105 L402.243625,120.37818 L432.49351,120.37818 L429.363308,152.246509 L401.553846,152.246509 L401.553846,238.931485 L365.196358,238.931485 L365.196358,152.246509 L340.228961,152.246509 L340.228961,120.37818 L363.738216,120.37818 C363.716645,117.416968 363.601274,94.1066593 365.258648,88.5363987 L365.318597,88.3450676 L365.388448,88.0718733 C365.401545,88.0632005 365.401545,88.0501912 365.401545,88.0415184 C376.228245,46.8325042 430.300931,59.1410302 432.3217,59.6143255 Z M958.528913,168.490727 C957.821671,176.959749 957.887156,185.602228 958.699175,194.066914 C959.825524,205.65382 967.832204,212.43164 979.506066,212.960683 C990.363544,213.463708 998.505561,207.436088 1001.02893,196.300169 C1001.20792,195.528287 1001.3389,194.752068 1001.4655,193.967177 C1001.70125,191.699231 1003.47808,173.976294 1001.08568,164.006872 C998.448807,154.098159 991.057689,148.257005 980.680438,148.05753 C968.054854,147.810354 959.637799,155.121553 958.528913,168.490727 Z M848.941296,148.048857 C840.886594,148.313378 834.813915,151.756494 831.334458,158.07899 C827.235073,166.326855 827.898658,183.780933 828.514221,192.128536 C828.514221,192.124199 828.522952,192.124199 828.531683,192.119863 C829.321874,197.514366 832.0417,206.104808 841.039393,211.234789 C843.305187,212.115082 845.828558,212.683152 848.618235,212.899973 C859.781311,213.76292 869.185013,207.613881 870.857073,195.879537 C872.323946,185.723648 872.254095,175.012698 870.743565,164.848136 C869.040945,153.313267 860.383777,147.675925 848.941296,148.048857 Z M472.448329,162.623555 C472.168924,164.045899 468.868461,181.595379 471.688698,196.365215 C474.041807,206.746598 481.249565,212.540051 492.141968,212.960683 C502.77243,213.376979 511.765757,206.746598 512.953225,195.70608 C514.040283,185.632583 514.014088,175.268547 512.909568,165.199386 C511.730831,154.436399 503.667397,148.28736 493.207197,148.053193 C482.554907,147.806018 475.29476,152.710505 472.448329,162.623555 Z M1088.13323,168.473381 C1087.42599,176.942403 1087.50021,185.584883 1088.31222,194.045232 C1089.43857,205.627802 1097.44525,212.401285 1109.11912,212.943337 C1119.97659,213.437689 1128.10988,207.418742 1130.64198,196.282823 C1130.82097,195.506605 1130.95194,194.734722 1131.07855,193.945495 C1131.31866,191.681885 1133.0824,173.950276 1130.69873,163.985189 C1128.06186,154.076477 1120.66201,148.235323 1110.30222,148.035848 C1097.6679,147.788672 1089.25958,155.099871 1088.13323,168.473381 Z M710.151562,148.113903 C703.129452,152.555603 701.943537,159.755874 701.679761,167.564521 L701.655924,168.360634 L742.719629,168.360634 C742.95101,159.770192 742.322351,151.825876 734.306939,147.428749 C726.378841,143.066314 717.861375,143.248443 710.151562,148.113903 Z" id="Combined-Shape" fill="#000000"></path>
    </g>
</svg>