<?xml version="1.0" encoding="UTF-8"?>
<svg width="300px" height="300px" viewBox="0 0 300 300" version="1.1" xmlns="http://www.w3.org/2000/svg" xmlns:xlink="http://www.w3.org/1999/xlink">
    <!-- Generator: Sketch 58 (84663) - https://sketch.com -->
    <title>Instagram-icon-vector-02</title>
    <desc>Created with Sketch.</desc>
    <g id="Page-1" stroke="none" stroke-width="1" fill="#e6f0fa" fill-rule="evenodd">
        <g id="Group-2" fill="#1E3232" fill-rule="nonzero">
            <g id="Instagram-icon-vector-02">
                <path d="M150.066568,27.7175789 C189.496981,27.7175789 194.358265,27.7175789 210.022402,28.7978642 C224.606254,29.3380068 232.168251,32.0387201 237.569677,33.659148 C244.591532,36.3598613 249.452815,39.6007172 254.854242,45.0021437 C260.255668,50.4035702 263.496524,55.264854 266.197238,62.2867084 C268.357808,67.6881349 270.518379,75.250132 271.058521,89.8339835 C271.598664,105.49812 272.138807,110.359404 272.138807,149.789818 C272.138807,189.220231 272.138807,194.081515 271.058521,209.745652 C270.518379,224.329503 267.817666,231.8915 266.197238,237.292927 C263.496524,244.314781 260.255668,249.176065 254.854242,254.577491 C249.452815,259.978918 244.591532,263.219774 237.569677,265.920487 C232.168251,268.081058 224.606254,270.241628 210.022402,270.781771 C194.358265,271.321914 189.496981,271.862056 150.066568,271.862056 C110.636155,271.862056 105.774871,271.862056 90.110734,270.781771 C75.5268825,270.241628 67.9648854,267.540915 62.5634589,265.920487 C55.5416045,263.219774 50.6803206,259.978918 45.2788942,254.577491 C39.8774677,249.176065 36.6366118,244.314781 33.9358985,237.292927 C31.7753279,231.8915 29.6147573,224.329503 29.0746147,209.745652 C28.534472,194.081515 27.9943294,189.220231 27.9943294,149.789818 C27.9943294,110.359404 27.9943294,105.49812 29.0746147,89.8339835 C29.6147573,75.250132 32.3154706,67.6881349 33.9358985,62.2867084 C36.6366118,55.264854 39.8774677,50.4035702 45.2788942,45.0021437 C50.6803206,39.6007172 55.5416045,36.3598613 62.5634589,33.659148 C67.9648854,31.4985774 75.5268825,29.3380068 90.110734,28.7978642 C105.774871,27.7175789 110.636155,27.7175789 150.066568,27.7175789 M150.066568,0.430843195 C109.47989,0.430843195 104.609489,0.430843195 88.9159735,1.5131546 C73.2224581,2.05431031 62.399344,4.76008883 52.6585413,8.54817876 C42.9177386,12.3362687 34.8004031,17.20667 26.1419118,25.8651613 C18.0245762,33.9824969 12.6130192,42.6409881 8.82492925,52.3817908 C5.03683932,61.5814378 2.87221651,72.4045519 1.7899051,88.639223 C1.24874939,104.332738 0.707593688,109.744295 0.707593688,149.789818 C0.707593688,190.376495 0.707593688,195.246897 1.7899051,210.940412 C2.3310608,226.633928 5.03683932,237.457042 8.82492925,247.197844 C12.6130192,256.938647 17.4834205,265.055983 26.1419118,273.714474 C34.2592473,281.831809 42.9177386,287.243366 52.6585413,291.031456 C61.8581883,294.819546 72.6813023,296.984169 88.9159735,298.066481 C104.609489,298.607636 110.021046,299.148792 150.066568,299.148792 C190.11209,299.148792 195.523647,299.148792 211.217163,298.066481 C226.910678,297.525325 237.733792,294.819546 247.474595,291.031456 C257.215397,287.243366 265.332733,282.372965 273.991224,273.714474 C282.10856,265.597138 287.520117,256.938647 291.308207,247.197844 C295.096297,237.998197 297.26092,227.175083 298.343231,210.940412 C298.884387,195.246897 299.425542,189.83534 299.425542,149.789818 C299.425542,109.744295 299.425542,104.332738 298.343231,88.639223 C297.802075,72.9457076 295.096297,62.1225935 291.308207,52.3817908 C287.520117,42.6409881 282.649716,34.5236526 273.991224,25.8651613 C265.873889,17.7478257 257.215397,12.3362687 247.474595,8.54817876 C238.274948,4.76008883 227.451834,2.59546601 211.217163,1.5131546 C195.523647,0.430843195 190.653246,0.430843195 150.066568,0.430843195 L150.066568,0.430843195 Z" id="Shape"></path>
                <path d="M150.065312,72.2262162 C107.86673,72.2262162 73.7832608,106.596102 73.7832608,149.149293 C73.7832608,191.702485 107.86673,226.07237 150.065312,226.07237 C192.263894,226.07237 226.347363,191.702485 226.347363,149.149293 C226.347363,106.596102 192.263894,72.2262162 150.065312,72.2262162 Z M150.784954,198.753894 C123.258648,198.753894 101.129657,176.327113 101.129657,148.430386 C101.129657,120.533658 123.258648,98.1068775 150.784954,98.1068775 C178.31126,98.1068775 200.440252,120.533658 200.440252,148.430386 C200.440252,176.327113 178.31126,198.753894 150.784954,198.753894 Z" id="Shape"></path>
                <circle id="Oval" cx="230.769231" cy="69.2307692" r="17.9487179"></circle>
            </g>
        </g>
    </g>
</svg>