<?xml version="1.0" encoding="UTF-8"?>
<svg width="1251px" height="300px" viewBox="0 0 1251 300" version="1.1" xmlns="http://www.w3.org/2000/svg" xmlns:xlink="http://www.w3.org/1999/xlink">
    <!-- Generator: Sketch 58 (84663) - https://sketch.com -->
    <title>Group 2</title>
    <desc>Created with Sketch.</desc>
    <g id="Page-1" stroke="none" stroke-width="1" fill="none" fill-rule="evenodd">
        <g id="Group-2" fill="#000000" fill-rule="nonzero">
            <g id="Instagram-icon-vector-02">
                <path d="M150.066568,27.7175789 C189.496981,27.7175789 194.358265,27.7175789 210.022402,28.7978642 C224.606254,29.3380068 232.168251,32.0387201 237.569677,33.659148 C244.591532,36.3598613 249.452815,39.6007172 254.854242,45.0021437 C260.255668,50.4035702 263.496524,55.264854 266.197238,62.2867084 C268.357808,67.6881349 270.518379,75.250132 271.058521,89.8339835 C271.598664,105.49812 272.138807,110.359404 272.138807,149.789818 C272.138807,189.220231 272.138807,194.081515 271.058521,209.745652 C270.518379,224.329503 267.817666,231.8915 266.197238,237.292927 C263.496524,244.314781 260.255668,249.176065 254.854242,254.577491 C249.452815,259.978918 244.591532,263.219774 237.569677,265.920487 C232.168251,268.081058 224.606254,270.241628 210.022402,270.781771 C194.358265,271.321914 189.496981,271.862056 150.066568,271.862056 C110.636155,271.862056 105.774871,271.862056 90.110734,270.781771 C75.5268825,270.241628 67.9648854,267.540915 62.5634589,265.920487 C55.5416045,263.219774 50.6803206,259.978918 45.2788942,254.577491 C39.8774677,249.176065 36.6366118,244.314781 33.9358985,237.292927 C31.7753279,231.8915 29.6147573,224.329503 29.0746147,209.745652 C28.534472,194.081515 27.9943294,189.220231 27.9943294,149.789818 C27.9943294,110.359404 27.9943294,105.49812 29.0746147,89.8339835 C29.6147573,75.250132 32.3154706,67.6881349 33.9358985,62.2867084 C36.6366118,55.264854 39.8774677,50.4035702 45.2788942,45.0021437 C50.6803206,39.6007172 55.5416045,36.3598613 62.5634589,33.659148 C67.9648854,31.4985774 75.5268825,29.3380068 90.110734,28.7978642 C105.774871,27.7175789 110.636155,27.7175789 150.066568,27.7175789 M150.066568,0.430843195 C109.47989,0.430843195 104.609489,0.430843195 88.9159735,1.5131546 C73.2224581,2.05431031 62.399344,4.76008883 52.6585413,8.54817876 C42.9177386,12.3362687 34.8004031,17.20667 26.1419118,25.8651613 C18.0245762,33.9824969 12.6130192,42.6409881 8.82492925,52.3817908 C5.03683932,61.5814378 2.87221651,72.4045519 1.7899051,88.639223 C1.24874939,104.332738 0.707593688,109.744295 0.707593688,149.789818 C0.707593688,190.376495 0.707593688,195.246897 1.7899051,210.940412 C2.3310608,226.633928 5.03683932,237.457042 8.82492925,247.197844 C12.6130192,256.938647 17.4834205,265.055983 26.1419118,273.714474 C34.2592473,281.831809 42.9177386,287.243366 52.6585413,291.031456 C61.8581883,294.819546 72.6813023,296.984169 88.9159735,298.066481 C104.609489,298.607636 110.021046,299.148792 150.066568,299.148792 C190.11209,299.148792 195.523647,299.148792 211.217163,298.066481 C226.910678,297.525325 237.733792,294.819546 247.474595,291.031456 C257.215397,287.243366 265.332733,282.372965 273.991224,273.714474 C282.10856,265.597138 287.520117,256.938647 291.308207,247.197844 C295.096297,237.998197 297.26092,227.175083 298.343231,210.940412 C298.884387,195.246897 299.425542,189.83534 299.425542,149.789818 C299.425542,109.744295 299.425542,104.332738 298.343231,88.639223 C297.802075,72.9457076 295.096297,62.1225935 291.308207,52.3817908 C287.520117,42.6409881 282.649716,34.5236526 273.991224,25.8651613 C265.873889,17.7478257 257.215397,12.3362687 247.474595,8.54817876 C238.274948,4.76008883 227.451834,2.59546601 211.217163,1.5131546 C195.523647,0.430843195 190.653246,0.430843195 150.066568,0.430843195 L150.066568,0.430843195 Z" id="Shape"></path>
                <path d="M150.065312,72.2262162 C107.86673,72.2262162 73.7832608,106.596102 73.7832608,149.149293 C73.7832608,191.702485 107.86673,226.07237 150.065312,226.07237 C192.263894,226.07237 226.347363,191.702485 226.347363,149.149293 C226.347363,106.596102 192.263894,72.2262162 150.065312,72.2262162 Z M150.784954,198.753894 C123.258648,198.753894 101.129657,176.327113 101.129657,148.430386 C101.129657,120.533658 123.258648,98.1068775 150.784954,98.1068775 C178.31126,98.1068775 200.440252,120.533658 200.440252,148.430386 C200.440252,176.327113 178.31126,198.753894 150.784954,198.753894 Z" id="Shape"></path>
                <circle id="Oval" cx="230.769231" cy="69.2307692" r="17.9487179"></circle>
            </g>
            <g id="Instagram_logo" transform="translate(340.000000, 41.000000)">
                <path d="M47.7073036,1.31873981 C29.082214,9.11493625 8.60705762,31.140162 2.14033018,58.7865863 C-6.04927234,93.8156941 28.0314843,108.628398 30.8268046,103.771488 C34.1168698,98.0645717 24.7199334,96.1346529 22.7856485,77.9599581 C20.2857275,54.48578 31.1988399,28.2560267 44.9333541,16.7471752 C47.4863574,14.6089488 47.3649117,17.5850015 47.3649117,23.0898143 C47.3649117,32.9336986 46.820991,121.302888 46.820991,139.745636 C46.820991,164.700956 45.7902533,172.581372 43.9390386,180.368262 C42.063351,188.259478 39.0478888,193.591486 41.3328382,195.645378 C43.8857266,197.942851 54.7856259,192.478023 61.0957492,183.67108 C68.6624971,173.108518 71.3112092,160.423469 71.7867664,146.647707 C72.3611347,130.041466 72.3366617,103.69083 72.3611347,88.6606266 C72.384114,74.8756728 72.5933408,34.5103102 72.1195071,10.2441404 C72.0033466,4.29214989 55.4963765,-1.95236745 47.7063845,1.31150133 M709.082774,118.107842 C708.482324,131.081511 705.610483,141.222173 702.046274,148.374948 C695.146157,162.222291 680.828197,166.522068 674.749016,146.615996 C671.436087,135.765157 671.281321,117.6432 673.663128,102.50119 C676.087677,87.0757424 682.857617,75.4260277 694.067852,76.4766425 C705.12493,77.5151932 710.300449,91.762721 709.082774,118.107268 L709.082774,118.107842 Z M522.679663,198.599715 C522.529608,220.156278 519.13694,239.05689 511.86157,244.546421 C501.542818,252.330324 487.673645,246.491506 490.545486,230.761467 C493.08654,216.841855 505.103924,202.626383 522.708847,185.257343 C522.708847,185.257343 522.745614,189.21829 522.680123,198.599715 L522.679663,198.599715 Z M519.861478,117.98226 C519.230466,129.79869 516.167092,141.669351 512.824978,148.376557 C505.926355,162.223785 491.504299,166.552745 485.52772,146.617604 C481.441307,132.997067 482.419996,115.368591 484.441832,104.261062 C487.065497,89.849577 493.425026,76.4797447 504.846556,76.4797447 C515.951086,76.4797447 521.42683,88.6625799 519.861478,117.983179 L519.861478,117.98226 Z M411.877827,117.801528 C411.200856,130.316299 408.759417,140.777983 404.841442,148.376557 C397.752894,162.128535 383.72907,166.489897 377.544184,146.617604 C373.085505,132.288155 374.603405,112.749511 376.458181,102.194761 C379.210645,86.5320515 386.103064,75.4275213 396.863019,76.4797447 C407.915501,77.5595433 413.288528,91.7642146 411.877827,117.802447 L411.877827,117.801528 Z M906.741987,132.419367 C904.040078,132.419367 902.807122,135.204347 901.78707,139.892244 C898.248943,156.192171 894.530083,159.872655 889.734413,159.872655 C884.376667,159.872655 879.562613,151.801626 878.325062,135.64486 C877.352461,122.940509 877.508721,99.5513342 878.752477,76.2853396 C879.006628,71.505065 877.68796,66.7753449 864.866414,62.1175502 C859.349307,60.1140975 851.329522,57.1641309 847.336519,66.8029201 C836.054359,94.0342275 831.64003,115.65365 830.601594,124.436234 C830.547593,124.890765 829.990459,124.983601 829.892452,123.921612 C829.230762,116.88741 827.751238,104.104918 827.567404,77.2488628 C827.531786,72.0090017 826.421769,67.5488291 820.638217,63.8972991 C816.885578,61.5279006 805.490015,57.3372802 801.386711,62.3227556 C797.831694,66.4000925 793.714603,77.3728363 789.436657,90.3797101 C785.959885,100.951235 783.538323,108.102631 783.538323,108.102631 C783.538323,108.102631 783.584282,79.578507 783.625644,68.7588056 C783.644028,64.6769877 780.844112,63.3168413 780.000196,63.0702731 C776.200105,61.9673803 768.713325,60.1248978 765.535169,60.1248978 C761.614091,60.1248978 760.653785,62.316666 760.653785,65.5102181 C760.653785,65.9283269 760.034952,103.064988 760.034952,129.032674 C760.034952,130.160614 760.034952,131.391272 760.046442,132.698566 C757.877653,144.633569 750.844255,160.835144 743.195126,160.835144 C735.536806,160.835144 731.923651,154.061757 731.923651,123.104237 C731.923651,105.044428 732.465848,97.1915871 732.732409,84.1296777 C732.88706,76.606131 733.185791,70.8286685 733.168901,69.517583 C733.112602,65.497005 726.160091,63.470573 722.925176,62.7216767 C719.67498,61.9664611 716.850591,61.6739342 714.645035,61.7995163 C711.523524,61.9756528 709.314865,64.0235705 709.314865,66.8402615 C709.314865,68.3504629 709.3321,71.2223044 709.3321,71.2223044 C705.311522,64.9042532 698.844909,60.5068142 694.542375,59.2325002 C682.9539,55.7908909 670.861374,58.840358 661.740419,71.6037612 C654.491016,81.7448831 650.12129,93.2307553 648.401172,109.7329 C647.143743,121.797173 647.554154,134.031137 649.788894,144.377464 C647.088593,156.052112 642.075423,160.835144 636.586006,160.835144 C628.616776,160.835144 622.839313,147.827466 623.510195,125.331279 C623.952776,110.534648 626.913548,100.15075 630.149956,85.1282444 C631.52998,78.7243654 630.408818,75.3715667 627.596608,72.1581375 C625.017294,69.2112686 619.521788,67.705663 611.62138,69.5574521 C605.994087,70.8777294 597.948335,72.2975071 590.587138,73.388106 C590.587138,73.388106 591.031328,71.6159403 591.395895,68.4914411 C593.310418,52.1056962 575.504886,53.4351652 569.823936,58.6688173 C566.432877,61.7934267 564.124604,65.4786215 563.248517,72.1045957 C561.859302,82.6194763 570.435072,87.5789897 570.435072,87.5789897 C567.621368,100.458673 560.724353,117.283918 553.603633,129.44837 C549.789869,135.965767 546.872069,140.795217 543.105643,145.929029 C543.091855,144.017378 543.081514,142.105958 543.07462,140.20327 C542.988448,113.124993 543.348764,91.8135053 543.508011,84.1322055 C543.662776,76.6087737 543.964495,70.9844684 543.947605,69.6733828 C543.905093,66.7326034 542.187733,65.6221274 538.615942,64.2160223 C535.457663,62.9723811 531.723407,62.1115755 527.849897,61.8113506 C522.960815,61.4300087 520.01544,64.0231109 520.091961,67.0894723 C520.106898,67.6684365 520.106898,71.2234534 520.106898,71.2234534 C516.086205,64.9052873 509.619592,60.5079632 505.317173,59.2335343 C493.728583,55.7934186 481.636171,58.8430006 472.515102,71.6047953 C465.267307,81.7459172 460.520697,95.9765551 459.175832,109.608352 C457.922999,122.313289 458.154286,133.110126 459.86211,142.205114 C458.019512,151.312511 452.721513,160.836293 446.731147,160.836293 C439.072827,160.836293 434.715257,154.062791 434.715257,123.105386 C434.715257,105.045577 435.257454,97.192736 435.524014,84.1322055 C435.678665,76.6087737 435.977397,70.8298175 435.960507,69.5202256 C435.904207,65.4996476 428.951582,63.4732156 425.716782,62.7227107 C422.331812,61.9400349 419.409416,61.6521039 417.165485,61.8174401 C414.204829,62.0380417 412.123246,64.6893965 412.123246,66.6667676 L412.123246,71.2234534 C408.102668,64.9052873 401.636056,60.5079632 397.333521,59.2335343 C385.745046,55.7934186 373.719964,58.8920615 364.531565,71.6047953 C358.539706,79.8941281 353.688885,89.0841356 351.192295,109.427619 C350.470859,115.306547 350.152251,120.811705 350.193614,125.95735 C347.804223,140.56979 337.251082,157.411454 328.618668,157.411454 C323.567237,157.411454 318.756285,147.613643 318.756285,126.732328 C318.756285,98.9173346 320.477897,59.3147662 320.76893,55.4979045 C320.76893,55.4979045 331.675838,55.3125762 333.788098,55.2879883 C339.228453,55.2282421 344.155911,55.3569263 351.402097,54.9862698 C355.036737,54.8009415 358.538097,41.7573007 354.787067,40.143003 C353.086941,39.4123752 341.071051,38.7721712 336.307666,38.6710621 C332.302369,38.5802938 321.15188,37.7551062 321.15188,37.7551062 C321.15188,37.7551062 322.152055,11.4687088 322.384836,8.69188683 C322.582458,6.37752386 319.588022,5.18593083 317.871007,4.4628863 C313.695778,2.69692498 309.960029,1.85140062 305.532027,0.93854684 C299.414471,-0.323477825 296.639142,0.910971647 296.096945,6.07419674 C295.280604,13.9102623 294.857785,36.8621295 294.857785,36.8621295 C290.368543,36.8621295 275.033519,35.984549 270.542784,35.984549 C266.370542,35.984549 261.867398,53.9279568 267.635669,54.1484435 C274.272329,54.4058119 285.837939,54.6279071 293.505336,54.8591941 C293.505336,54.8591941 293.163864,95.1142559 293.163864,107.542166 C293.163864,108.864396 293.175353,110.137681 293.177651,111.373164 C288.957842,133.367839 274.094699,145.248841 274.094699,145.248841 C277.286642,130.698101 270.766373,119.771201 259.021638,110.52155 C254.694631,107.113027 246.152526,100.660202 236.594964,93.589003 C236.594964,93.589003 242.130454,88.1332511 247.039413,77.1574051 C250.517794,69.3826943 250.667964,60.4852136 242.130454,58.5232432 C228.02379,55.2791413 216.392458,65.639247 212.923154,76.6994271 C210.235147,85.2674991 211.668828,91.6254195 216.934656,98.229908 C217.3191,98.7124739 217.735715,99.2056102 218.166118,99.7018488 C214.981757,105.839512 210.607298,114.102878 206.902226,120.51102 C196.618632,138.302764 188.850126,152.375649 182.979252,152.375649 C178.286184,152.375649 178.349033,138.088023 178.349033,124.710837 C178.349033,113.178535 179.200647,95.8405175 179.88072,77.8895265 C180.105802,71.9528172 177.137448,68.5708347 172.161159,65.5075754 C169.137654,63.6465946 162.684715,59.9874814 158.947472,59.9874814 C153.353614,59.9874814 137.214773,60.7486716 121.965576,104.858984 C120.043815,110.418718 116.268426,120.549281 116.268426,120.549281 L116.593354,67.5048237 C116.593354,66.2611825 115.930975,65.0587892 114.414339,64.2362442 C111.844676,62.8409394 104.98144,59.9874814 98.8787053,59.9874814 C95.9710161,59.9874814 94.5199865,61.3399297 94.5199865,64.0356346 L93.9876703,147.024109 C93.9876703,153.329636 94.1520874,160.685663 94.7755166,163.902999 C95.3966478,167.124356 96.4029126,169.744919 97.6491964,171.304066 C98.8936419,172.860226 100.333182,174.047338 102.706602,174.537257 C104.915604,174.992018 117.011578,176.545306 117.640292,171.922784 C118.393554,166.383043 118.422394,160.391068 124.773995,138.043902 C134.662114,103.25227 147.554436,86.2768661 153.615119,80.2482395 C154.67481,79.1945225 155.884787,79.131674 155.826534,80.8562725 C155.567787,88.4840305 154.657921,107.544004 154.045407,123.736743 C152.403649,167.07047 160.286822,175.102434 171.552322,175.102434 C180.170949,175.102434 192.320119,166.538843 205.343768,144.861409 C213.463169,131.352322 221.346572,118.106348 227.010631,108.55946 C230.95779,112.213403 235.387285,116.146097 239.813793,120.347292 C250.100374,130.110404 253.477761,139.387389 251.236932,148.188241 C249.523019,154.916244 243.068585,161.849911 231.581104,155.110649 C228.232901,153.144538 226.803817,151.625489 223.437231,149.408903 C221.628413,148.218114 218.866757,147.862165 217.211097,149.109597 C212.910171,152.35244 210.450349,156.477114 209.045852,161.583696 C207.679616,166.55263 212.655905,169.179282 217.814534,171.476756 C222.256323,173.454127 231.8032,175.24594 237.891572,175.449996 C261.613936,176.243357 280.617266,163.996065 293.84612,132.404201 C296.21414,159.687671 306.292413,175.126792 323.802431,175.126792 C335.508904,175.126792 347.245941,159.995135 352.378603,145.109356 C353.852038,151.177277 356.033121,156.453905 358.849812,160.916031 C372.342239,182.29347 398.516727,177.692319 411.664579,159.539455 C415.729622,153.930316 416.34834,151.914684 416.34834,151.914684 C418.265965,169.055424 432.069302,175.044296 439.972697,175.044296 C448.824219,175.044296 457.963558,170.859761 464.36893,156.439199 C465.11955,158.004206 465.938878,159.498781 466.833463,160.915572 C480.325775,182.29301 506.500378,177.691859 519.648115,159.538995 C520.268442,158.687496 520.806044,157.915046 521.276316,157.22176 L521.662253,168.480596 C521.662253,168.480596 514.161686,175.361181 509.557548,179.582139 C489.293688,198.173449 473.885244,212.278505 472.751789,228.704013 C471.296738,249.647947 488.282827,257.431849 501.133441,258.451902 C514.780519,259.534917 526.467116,251.996204 533.650568,241.44582 C539.96862,232.15953 544.104209,212.1728 543.800882,192.432753 C543.679896,184.52798 543.48078,174.477051 543.324521,163.703424 C550.446733,155.432474 558.471115,144.978833 565.859888,132.742457 C573.911844,119.407438 582.541156,101.499636 586.959966,87.5630191 C586.959966,87.5630191 594.457546,87.6273612 602.458833,87.1035474 C605.01827,86.9366026 605.753494,87.4588078 605.280234,89.3351848 C604.708853,91.6019806 595.171284,128.389483 603.875623,152.896016 C609.833818,169.672304 623.265005,175.069803 631.228031,175.069803 C640.549711,175.069803 649.467068,168.030201 654.245826,157.57679 C654.821688,158.742187 655.423632,159.869897 656.080726,160.910976 C669.573153,182.288414 695.655838,177.659688 708.895493,159.534399 C711.883724,155.444998 713.579254,151.909628 713.579254,151.909628 C716.420533,169.649325 730.216172,175.129549 738.117959,175.129549 C746.349154,175.129549 754.160632,171.75515 760.498675,156.758841 C760.763626,163.361721 761.180242,168.760829 761.838829,170.463023 C762.240163,171.503986 764.578999,172.81082 766.280618,173.441948 C773.810254,176.234166 781.490061,174.913774 784.331225,174.339405 C786.299404,173.941059 787.834193,172.362034 788.043995,168.284582 C788.595384,157.578399 788.256898,139.590411 791.502498,126.222072 C796.950667,103.786309 802.03266,95.0834636 804.443536,90.7749546 C805.792882,88.3609762 807.315378,87.9627445 807.370528,90.5175861 C807.484276,95.6869007 807.741185,110.867274 809.851836,131.262818 C811.401792,146.263033 813.472689,155.129147 815.064007,157.935153 C819.605412,165.959534 825.214321,166.339497 829.781807,166.339497 C832.687313,166.339497 838.763392,165.536599 838.219701,160.430133 C837.954749,157.941127 838.418817,142.558651 843.790349,120.455295 C847.297799,106.021049 853.145693,92.978787 855.254851,88.2108063 C856.032931,86.4524282 856.394396,87.8385412 856.382102,88.1085483 C855.937911,98.0490607 854.940838,130.563212 858.990485,148.345765 C864.480017,172.435683 880.360226,175.131388 885.894107,175.131388 C897.70778,175.131388 907.369553,166.144862 910.624345,142.499364 C911.408514,136.808993 910.247484,132.415116 906.769103,132.415116" id="Shape"></path>
            </g>
        </g>
    </g>
</svg>